<?xml version="1.0" standalone="no"?>
<!DOCTYPE svg PUBLIC "-//W3C//DTD SVG 20010904//EN"
 "http://www.w3.org/TR/2001/REC-SVG-20010904/DTD/svg10.dtd">
<svg version="1.0" xmlns="http://www.w3.org/2000/svg"
 width="1056.000000pt" height="126.000000pt" viewBox="0 0 1056.000000 126.000000"
 preserveAspectRatio="xMidYMid meet">

<g transform="translate(0.000000,126.000000) scale(0.100000,-0.100000)"
fill="#000000" stroke="none">
<path d="M5002 633 c2 -490 6 -627 16 -631 9 -3 12 127 12 627 0 556 -2 631
-15 631 -13 0 -15 -74 -13 -627z"/>
<path d="M6621 1175 c-47 -36 -90 -74 -98 -84 -14 -20 -73 -288 -73 -331 0
-35 35 -79 76 -96 43 -18 345 -20 377 -2 45 23 177 132 177 145 0 10 -41 13
-209 13 -116 0 -212 3 -214 8 -3 4 13 88 34 187 42 196 45 225 27 225 -7 0
-51 -30 -97 -65z"/>
<path d="M29 1081 l-29 -29 0 -422 c0 -465 0 -468 61 -489 21 -7 165 -11 431
-11 424 0 453 3 477 48 16 30 15 856 -1 885 -24 47 -20 46 -476 47 l-434 0
-29 -29z m645 -49 c79 -37 172 -121 209 -190 27 -51 57 -149 57 -190 0 -42
-25 -17 -32 32 -14 101 -92 207 -187 255 -22 12 -44 21 -48 21 -4 -1 14 -12
40 -26 96 -50 172 -155 184 -255 7 -60 -11 -67 -21 -8 -10 60 -39 111 -90 156
-108 95 -275 82 -369 -28 -33 -38 -67 -118 -67 -156 0 -10 -19 -13 -74 -13
l-75 0 6 38 c18 115 89 215 193 268 50 26 64 29 157 29 65 0 94 3 80 8 -39 15
-178 2 -229 -21 -102 -45 -187 -153 -210 -268 l-11 -54 -73 0 c-41 0 -74 4
-74 8 0 39 27 137 51 185 55 108 142 184 258 224 56 20 81 23 162 20 82 -3
106 -8 163 -35z m51 -176 c76 -35 128 -104 141 -186 10 -60 -15 -49 -31 13
-20 78 -83 127 -164 127 -85 0 -151 -52 -172 -136 l-11 -44 -65 0 -64 0 7 38
c31 169 205 260 359 188z m-652 -291 c27 -197 243 -340 437 -291 147 38 257
157 276 299 l7 47 73 0 c84 0 83 2 63 -92 -28 -130 -122 -249 -246 -310 -66
-32 -71 -33 -193 -33 -122 0 -126 1 -193 34 -79 40 -161 117 -200 190 -29 52
-62 184 -52 202 11 17 22 0 28 -46z m36 1 c24 -106 101 -183 206 -207 137 -30
278 64 308 206 l11 55 73 0 c85 0 85 1 53 -103 -49 -159 -220 -264 -386 -237
-150 25 -274 148 -291 290 -8 68 10 65 26 -4z m35 3 c13 -81 117 -151 199
-134 74 16 128 72 142 148 l7 37 65 0 66 0 -7 -41 c-9 -58 -38 -110 -84 -151
-103 -93 -266 -81 -357 25 -36 41 -72 137 -60 157 11 18 22 2 29 -41z"/>
<path d="M1570 945 l0 -55 55 0 55 0 0 55 0 55 -55 0 -55 0 0 -55z"/>
<path d="M6277 910 l-117 -90 -116 0 c-68 0 -124 -5 -137 -12 -45 -23 -177
-132 -177 -145 0 -10 48 -13 253 -13 252 0 253 0 305 26 29 14 60 38 71 52 10
15 28 74 40 132 13 58 25 113 27 123 11 36 -33 15 -149 -73z"/>
<path d="M7420 927 c-19 -12 -43 -37 -53 -55 -19 -32 -107 -422 -107 -474 0
-41 19 -74 54 -93 26 -14 58 -16 212 -13 176 3 182 4 221 30 44 29 69 72 79
136 l7 42 -77 0 c-73 0 -76 -1 -82 -25 -11 -43 -40 -55 -136 -55 -95 0 -122
13 -113 53 11 47 65 302 65 309 0 3 7 14 16 22 12 12 38 16 113 16 109 0 128
-9 117 -55 l-6 -25 78 0 79 0 11 53 c14 68 6 102 -30 132 -29 25 -32 25 -222
25 -184 0 -195 -1 -226 -23z"/>
<path d="M8045 938 c-2 -7 -29 -133 -60 -281 -78 -378 -85 -367 238 -367 l204
0 12 57 c6 31 11 60 11 65 0 4 -71 8 -158 8 -196 0 -201 2 -183 84 l12 56 169
0 168 0 11 50 c19 86 31 80 -155 80 l-166 0 5 23 c4 12 9 41 13 65 l7 42 182
0 182 0 12 57 c6 31 11 60 11 65 0 4 -115 8 -255 8 -196 0 -257 -3 -260 -12z"/>
<path d="M8687 928 c-4 -13 -33 -153 -67 -313 -33 -159 -63 -298 -66 -307 -5
-16 3 -18 74 -18 l79 0 19 93 20 92 154 5 c165 5 181 10 223 60 30 35 39 61
67 202 24 117 22 147 -15 184 -24 24 -24 24 -253 24 l-230 0 -5 -22z m350
-124 c9 -24 -17 -146 -35 -166 -13 -15 -33 -18 -119 -18 -76 0 -103 3 -103 13
0 10 8 45 35 165 5 21 10 22 111 22 87 0 106 -3 111 -16z"/>
<path d="M9400 932 c-47 -23 -75 -68 -94 -153 -20 -89 -20 -129 -1 -156 19
-27 53 -38 190 -58 161 -24 155 -22 155 -62 0 -23 -8 -42 -25 -58 -22 -23 -32
-25 -109 -25 -107 0 -116 4 -116 46 l0 34 -74 0 c-41 0 -77 -4 -80 -9 -4 -5
-9 -36 -12 -69 -6 -56 -5 -61 24 -93 l30 -34 178 -3 c202 -4 246 6 289 62 29
39 71 202 61 241 -11 42 -57 61 -203 84 -75 12 -143 26 -150 33 -19 15 -8 68
19 91 16 13 39 17 113 17 102 0 122 -10 111 -55 l-6 -25 79 0 78 0 12 60 c10
51 10 65 -4 94 -9 18 -27 38 -41 45 -16 7 -92 11 -207 11 -153 0 -187 -3 -217
-18z"/>
<path d="M10015 918 c-4 -18 -34 -166 -69 -328 l-62 -295 74 -3 c41 -2 76 -1
78 1 2 2 12 44 22 93 l18 89 122 3 c139 3 132 10 107 -93 -24 -98 -26 -95 59
-95 63 0 75 3 80 18 20 71 108 515 109 546 0 32 -6 45 -32 68 l-31 28 -235 0
-234 0 -6 -32z m365 -113 c9 -11 8 -33 -7 -102 l-19 -88 -122 -3 c-74 -2 -122
1 -122 7 0 9 23 128 35 179 5 21 10 22 114 22 83 0 111 -3 121 -15z"/>
<path d="M1250 841 c-19 -4 -45 -13 -57 -19 -66 -36 -84 -125 -37 -181 24 -29
55 -42 194 -78 27 -7 36 -14 38 -34 7 -57 -109 -64 -149 -10 -19 26 -26 28
-63 24 -64 -9 -69 -13 -47 -53 52 -99 253 -120 337 -36 41 41 52 92 29 139
-18 39 -65 64 -175 91 -77 20 -100 37 -80 60 19 24 105 21 130 -4 11 -11 28
-20 39 -20 39 0 81 13 81 25 0 19 -39 64 -68 79 -34 17 -126 26 -172 17z"/>
<path d="M1948 837 c-20 -7 -48 -22 -62 -34 l-25 -22 -3 27 c-3 25 -7 27 -55
30 l-53 3 0 -215 0 -216 54 0 53 0 5 143 c5 151 12 176 55 196 35 16 58 14 84
-8 23 -18 24 -25 28 -175 l3 -156 54 0 54 0 0 160 c0 178 -11 225 -58 252 -39
22 -91 28 -134 15z"/>
<path d="M2320 841 c-51 -11 -79 -28 -100 -64 -29 -46 -25 -54 26 -62 40 -6
48 -4 69 19 31 33 86 35 116 5 37 -37 22 -51 -81 -76 -111 -27 -140 -45 -159
-100 -28 -78 23 -150 111 -160 41 -5 79 6 150 45 3 1 9 -6 13 -17 5 -18 15
-21 62 -21 49 0 54 2 47 18 -4 9 -10 89 -14 177 -6 174 -12 194 -65 219 -38
18 -129 27 -175 17z m127 -273 c-10 -73 -83 -113 -129 -71 -20 18 -24 68 -7
79 15 9 99 32 123 33 16 1 18 -4 13 -41z"/>
<path d="M2774 836 c-17 -8 -35 -22 -39 -32 -7 -17 -8 -16 -14 6 -6 22 -13 25
-59 28 l-52 3 0 -215 0 -216 54 0 53 0 5 133 c4 97 10 142 22 166 16 30 20 32
64 30 l47 -3 15 42 c9 27 11 45 5 51 -18 17 -70 20 -101 7z"/>
<path d="M3087 836 c-21 -8 -46 -21 -56 -30 -24 -22 -31 -20 -31 9 0 23 -3 25
-50 25 l-50 0 0 -215 0 -215 55 0 55 0 0 138 c0 148 7 176 51 201 30 17 74 9
84 -16 4 -10 10 -87 13 -170 l5 -153 53 0 54 0 0 146 0 146 29 29 c35 35 74
38 95 7 13 -18 16 -53 16 -175 l0 -153 56 0 55 0 -3 185 c-3 183 -3 185 -29
210 -52 52 -146 52 -209 -1 -26 -22 -31 -24 -36 -10 -15 39 -102 62 -157 42z"/>
<path d="M3688 836 c-54 -15 -74 -29 -94 -67 -21 -41 -18 -46 32 -54 40 -6 48
-4 69 19 44 48 144 25 133 -31 -2 -13 -19 -22 -58 -30 -167 -38 -200 -61 -200
-140 0 -62 21 -97 70 -117 57 -23 99 -20 154 9 47 25 48 25 53 5 5 -17 14 -20
60 -20 49 0 54 2 47 18 -4 9 -10 89 -13 177 -4 105 -11 168 -19 183 -27 47
-149 72 -234 48z m142 -262 c0 -70 -85 -120 -132 -77 -22 20 -23 56 -2 74 17
14 85 36 117 38 13 1 17 -7 17 -35z"/>
<path d="M4110 841 c-78 -16 -120 -61 -120 -127 0 -78 39 -104 220 -151 27 -7
36 -14 38 -34 7 -57 -109 -64 -149 -10 -19 26 -26 28 -63 24 -64 -9 -69 -13
-47 -53 52 -99 253 -120 337 -36 40 40 50 76 35 126 -14 48 -39 64 -153 96
-105 30 -128 44 -108 68 8 11 30 16 66 16 45 0 56 -4 69 -24 14 -22 19 -22 65
-13 28 5 50 15 50 22 0 19 -39 64 -68 79 -34 17 -126 26 -172 17z"/>
<path d="M1570 625 l0 -215 55 0 55 0 0 215 0 215 -55 0 -55 0 0 -215z"/>
<path d="M5867 585 c-37 -19 -187 -136 -187 -145 0 -17 39 -20 231 -20 163 0
199 -3 199 -14 0 -7 -18 -98 -40 -201 -45 -212 -44 -205 -27 -205 18 0 190
138 203 163 19 35 73 310 67 339 -7 36 -50 74 -98 87 -61 17 -314 14 -348 -4z"/>
<path d="M6527 589 c-44 -10 -102 -47 -124 -79 -13 -19 -63 -221 -63 -257 0
-26 27 -11 140 76 l114 89 127 4 126 3 97 74 c53 40 95 79 93 85 -5 14 -454
19 -510 5z"/>
</g>
</svg>
